<?xml version="1.0" encoding="utf-8"?>
<!-- Generator: Adobe Illustrator 16.0.4, SVG Export Plug-In . SVG Version: 6.00 Build 0)  -->
<!DOCTYPE svg PUBLIC "-//W3C//DTD SVG 1.1//EN" "http://www.w3.org/Graphics/SVG/1.1/DTD/svg11.dtd">
<svg version="1.1" id="Capa_1" xmlns="http://www.w3.org/2000/svg" xmlns:xlink="http://www.w3.org/1999/xlink" x="0px" y="0px"
	 width="160px" height="160px" viewBox="0 0 160 160" enable-background="new 0 0 160 160" xml:space="preserve">
	<style type="text/css">
		.red {
			fill:red
		}
	</style> 
	<path class="red" d="M9.207,8.5l2.768-2.768c0.195-0.195,0.195-0.512,0-0.707c-0.195-0.195-0.512-0.195-0.707,0L8.5,7.793L5.732,5.025
	c-0.195-0.195-0.512-0.195-0.707,0c-0.195,0.195-0.195,0.512,0,0.707L7.793,8.5l-2.768,2.768c-0.195,0.195-0.195,0.512,0,0.707
	c0.195,0.195,0.512,0.195,0.707,0L8.5,9.207l2.768,2.768c0.195,0.195,0.512,0.195,0.707,0s0.195-0.512,0-0.707L9.207,8.5z"/>
</svg>
